<svg xmlns="http://www.w3.org/2000/svg" viewBox="262.134 110.392 110.01 76.906" width="110.01" height="76.906">
  <g id="Layer_1-2-2" data-name="Layer 1-2" transform="matrix(1, 0, 0, 1, 262.133801, 109.124186)">
    <rect x="64.919" y="1.268" width="45.015" height="76.906" style="fill: rgb(255, 255, 255);"/>
    <polygon class="cls-1" points="79.42 1.32 74.71 11.96 85.42 13.38 81.53 22.62 96.62 20.96 84.69 39.22 91.27 47.76 88.22 54.59 87.74 55.73 87.37 56.54 108.6 78.11 110.01 78.11 110.01 1.32 79.42 1.32" style="fill: rgb(204, 51, 56);"/>
    <path class="cls-1" d="M89.22,67.3l-4-4.15h0L85.07,63h0l-1.23-1.26-3-3.08-.36-.35,5.18-9.63-6.1-9.26,10-14L75.94,26.89,81.3,16.22l-10.72-1.9,5.92-13H0V78.11H22.53l-.05,0V78h14.6v.1l-.06.06H99.78L89.22,67.3Z" style="fill: rgb(204, 51, 56);"/>
    <path class="cls-2" d="M21.57,59.38l-.13.13a5.63,5.63,0,0,0-1.29.23,1.7,1.7,0,0,0-.58.64A23,23,0,0,0,18.36,63l-1,2.35-1.91,4.54Q13,75.74,12.1,78.11H9.92L3.34,62.62a10.77,10.77,0,0,0-1.45-2.78,3.06,3.06,0,0,0-1.74-.33L0,59.36v-.94l.16-.13c1,.06,2.26.09,3.79.09,1.9,0,3.63,0,5.2-.09l.14.15v.94l-.13.13a4.9,4.9,0,0,0-1.9.28.47.47,0,0,0-.24.45A13.89,13.89,0,0,0,8,62.89l.67,1.65,3.63,8.7,3.16-7.77c.12-.3.41-1,.85-2.24a17.06,17.06,0,0,0,1-3c0-.31-.11-.49-.32-.56A12.21,12.21,0,0,0,15,59.51l-.14-.13v-1l.16-.14c1.07.06,2.19.09,3.35.09.83,0,1.84,0,3.05-.08l.16.15Z" style="fill: rgb(255, 255, 255);"/>
    <path class="cls-2" d="M38.7,73.46l-.11-.14h-.87l-.14.15-.35,1.73A2.19,2.19,0,0,1,37,76a.46.46,0,0,1-.23.16,23.32,23.32,0,0,1-5.13.31H29.66c0-1.14-.06-2.32-.06-3.53v-8.3a28.34,28.34,0,0,1,.18-4.32.62.62,0,0,1,.48-.53c.15,0,.7-.08,1.68-.14l.13-.12v-1l-.13-.12c-1,.06-2.52.08-4.48.08s-3.32,0-4.32-.08l-.14.12v.94l.14.14c.56,0,1.12.07,1.67.14a.63.63,0,0,1,.47.52,31.09,31.09,0,0,1,.17,4.32v7l0,3.1a7.16,7.16,0,0,1-.16,1.85,5,5,0,0,1-1.14.81l-.07.17v.4l.05,0H38.33l.06-.06A30.56,30.56,0,0,1,38.7,73.46Z" style="fill: rgb(255, 255, 255);"/>
    <path class="cls-2" d="M63.62,67.22a10.63,10.63,0,0,1-3.07,8.07q-3,2.85-8.16,2.82a10.6,10.6,0,0,1-7.66-2.67A9.84,9.84,0,0,1,41.94,68q0-6.69,5.25-9.28a13.32,13.32,0,0,1,5.87-1.17q5,0,7.76,2.55A9.33,9.33,0,0,1,63.62,67.22Zm-4.4.72a11,11,0,0,0-1.66-6.41,5.59,5.59,0,0,0-4.89-2.37A5.48,5.48,0,0,0,47,62.87a11.77,11.77,0,0,0-.71,4.28A12.42,12.42,0,0,0,47.93,74a5.61,5.61,0,0,0,5,2.56,5.37,5.37,0,0,0,5.47-3.9A13.76,13.76,0,0,0,59.22,67.94Z" style="fill: rgb(255, 255, 255);"/>
    <path class="cls-2" d="M92,77.17,91.85,77c-.54,0-1.08-.07-1.61-.14a.62.62,0,0,1-.45-.52,32.63,32.63,0,0,1-.17-4.31V64.69a32.77,32.77,0,0,1,.17-4.31.61.61,0,0,1,.45-.51,14.37,14.37,0,0,1,1.61-.14L92,59.6v-1l-.14-.12c-.95,0-2.31.08-4.09.08-.36,0-1.05,0-2.08-.08-.36,1-.74,1.88-1.12,2.73l-.19.4-3.07,6.7-2.09,4.31-4.34-9.28L74,61.48l-1.28-3c-.83,0-1.8.08-2.91.08-1.44,0-2.64,0-3.59-.08l-.13.12v.94l.13.14a14.75,14.75,0,0,1,1.62.14.6.6,0,0,1,.44.52,31,31,0,0,1,.18,4.31V72a31.46,31.46,0,0,1-.21,4.34.6.6,0,0,1-.45.51,14.37,14.37,0,0,1-1.61.14l-.14.14v1h6.35v-.94L72.24,77c-.54,0-1.08-.07-1.61-.14a.6.6,0,0,1-.42-.53A31.22,31.22,0,0,1,70,72.05V62.37L73.62,70l1.89,4.11c.73,1.58,1.32,2.91,1.77,4h1.21l2.34-5.22c1-2.24,1.61-3.54,1.78-3.9l2.94-6.12.11-.23V72a31.22,31.22,0,0,1-.18,4.32.61.61,0,0,1-.45.51,14.37,14.37,0,0,1-1.61.14l-.14.14v1H92Z" style="fill: rgb(255, 255, 255);"/>
  </g>
</svg>